HIERARCHY
ROOT Hips
{
	OFFSET	0.00	0.00	0.00
	CHANNELS 6 Xposition Yposition Zposition Zrotation Xrotation Yrotation
	JOINT LeftUpLeg
	{
		OFFSET	 0.126116	-0.014019	-0.065224
		CHANNELS 3 Zrotation Xrotation Yrotation
		JOINT LeftLeg
		{
			OFFSET	 0.000000	 0.000000	 0.569914
			CHANNELS 3 Zrotation Xrotation Yrotation
			JOINT LeftFoot
			{
				OFFSET	 0.000000	 0.000000	 0.544423
				CHANNELS 3 Zrotation Xrotation Yrotation
				JOINT LeftToeBase
				{
					OFFSET	 0.000000	 0.000000	 0.207117
					CHANNELS 3 Zrotation Xrotation Yrotation
					End Site
					{
						OFFSET	 0.000000	 0.000000	 0.207117
					}
				}
			}
		}
	}
	JOINT RightUpLeg
	{
		OFFSET	-0.124023	-0.008373	-0.065224
		CHANNELS 3 Zrotation Xrotation Yrotation
		JOINT RightLeg
		{
			OFFSET	 0.000000	 0.000000	 0.570047
			CHANNELS 3 Zrotation Xrotation Yrotation
			JOINT RightFoot
			{
				OFFSET	 0.000000	 0.000000	 0.544354
				CHANNELS 3 Zrotation Xrotation Yrotation
				JOINT RightToeBase
				{
					OFFSET	 0.000000	 0.000000	 0.207540
					CHANNELS 3 Zrotation Xrotation Yrotation
					End Site
					{
						OFFSET	 0.000000	 0.000000	 0.207540
					}
				}
			}
		}
	}
	JOINT Spine
	{
		OFFSET	 0.000184	-0.007763	 0.117403
		CHANNELS 3 Zrotation Xrotation Yrotation
		JOINT Spine1
		{
			OFFSET	 0.000000	 0.000000	 0.137269
			CHANNELS 3 Zrotation Xrotation Yrotation
			JOINT Spine2
			{
				OFFSET	 0.000000	 0.000000	 0.156879
				CHANNELS 3 Zrotation Xrotation Yrotation
				JOINT LeftShoulder
				{
					OFFSET	 0.080501	-0.002496	 0.160144
					CHANNELS 3 Zrotation Xrotation Yrotation
					JOINT LeftArm
					{
						OFFSET	 0.000000	 0.000000	 0.164363
						CHANNELS 3 Zrotation Xrotation Yrotation
						JOINT LeftForeArm
						{
							OFFSET	 0.000000	 0.000000	 0.364576
							CHANNELS 3 Zrotation Xrotation Yrotation
							JOINT LeftHand
							{
								OFFSET	 0.000000	 0.000000	 0.360812
								CHANNELS 3 Zrotation Xrotation Yrotation
								JOINT LeftHandIndex1
								{
									OFFSET	 0.000000	 0.000000	 0.086006
									CHANNELS 3 Zrotation Xrotation Yrotation
									JOINT LeftHandIndex2
									{
										OFFSET	 0.000000	 0.000000	 0.047236
										CHANNELS 3 Zrotation Xrotation Yrotation
										JOINT LeftHandIndex3
										{
											OFFSET	-0.004284	-0.000551	 0.038166
											CHANNELS 3 Zrotation Xrotation Yrotation
											End Site
											{
												OFFSET	-0.004284	-0.000551	 0.038166
											}
										}
									}
								}
							}
						}
					}
				}
				JOINT Neck
				{
					OFFSET	 0.000000	 0.000000	 0.176489
					CHANNELS 3 Zrotation Xrotation Yrotation
					JOINT Head
					{
						OFFSET	 0.000000	-0.001747	 0.077940
						CHANNELS 3 Zrotation Xrotation Yrotation
						End Site
						{
							OFFSET	 0.000000	-0.001747	 0.077940
						}
					}
				}
				JOINT RightShoulder
				{
					OFFSET	-0.080363	 0.000306	 0.159706
					CHANNELS 3 Zrotation Xrotation Yrotation
					JOINT RightArm
					{
						OFFSET	 0.000000	 0.000000	 0.164196
						CHANNELS 3 Zrotation Xrotation Yrotation
						JOINT RightForeArm
						{
							OFFSET	 0.000000	 0.000000	 0.365611
							CHANNELS 3 Zrotation Xrotation Yrotation
							JOINT RightHand
							{
								OFFSET	 0.000000	 0.000000	 0.360648
								CHANNELS 3 Zrotation Xrotation Yrotation
								JOINT RightHandIndex1
								{
									OFFSET	 0.000000	 0.000000	 0.069977
									CHANNELS 3 Zrotation Xrotation Yrotation
									JOINT RightHandIndex2
									{
										OFFSET	 0.000000	 0.000000	 0.052305
										CHANNELS 3 Zrotation Xrotation Yrotation
										JOINT RightHandIndex3
										{
											OFFSET	 0.009002	-0.000782	 0.042196
											CHANNELS 3 Zrotation Xrotation Yrotation
											End Site
											{
												OFFSET	 0.009002	-0.000782	 0.042196
											}
										}
									}
								}
							}
						}
					}
				}
			}
		}
	}
}
MOTION
Frames:    12
Frame Time: 0.03333334
-0.228966	-5.506560	 1.258452	-4.608499	 17.374460	 3.761726	 3.529080	-34.861520	 175.382600	-1.339040	-43.080420	-0.340413	-0.747195	 80.911350	 0.510229	-2.352614	 34.125730	-0.128022	-0.737903	-36.047510	-179.504100	-2.976616	-43.072630	-0.952912	-1.602977	 81.181540	 0.512856	 2.406669	 19.834300	-0.176391	 7.871223	 14.776070	 0.041909	 10.730380	 1.360485	-1.938376	 12.242730	-3.830655	 1.220869	-125.644400	 89.280450	-141.920500	 55.320770	 66.022080	-61.615890	-12.130590	-0.595830	-24.237420	-1.685969	-2.197353	-5.374867	-5.653674	-12.215840	-1.307512	-5.213516	-0.193813	 3.566525	-1.378229	 35.397820	-2.634230	 0.806231	 0.127717	-3.805822	 3.075948	-6.978089	 1.784647	 93.698650	 85.948070	 172.014400	-61.298920	 74.938730	 70.696850	-0.752692	-13.772460	 32.991710	-24.473720	-3.189183	 9.580760	-9.892362	-9.973313	-38.890040	 5.070815	-0.697434	-9.399699	-2.350882	 35.473990	 5.254307
-0.228161	-5.513314	 1.258855	-4.523101	 17.677230	 3.776558	 3.607754	-34.867490	 175.510400	-1.672063	-43.065020	-0.524693	-0.858132	 81.229970	 0.397714	-2.353843	 33.957320	-0.124045	-0.758142	-35.905820	-179.437400	-2.840284	-42.829280	-0.874663	-1.599321	 81.713190	 0.627762	 2.406361	 20.174900	-0.169629	 8.723086	 14.656100	-0.019765	 10.552160	 1.260018	-1.973597	 11.999220	-3.966564	 1.210583	-125.191300	 89.271260	-142.364300	 57.308850	 66.604220	-62.295470	-11.681490	-0.679925	-23.519030	-1.443195	-2.213642	-5.373755	-5.507113	-12.043310	-0.981887	-5.213516	-0.193813	 3.566525	-1.378229	 35.397820	-2.634230	 0.779866	 0.031403	-3.744815	 2.995527	-7.205830	 1.862426	 93.693890	 85.965750	 172.050800	-59.348240	 76.071410	 67.902660	-1.315554	-13.070070	 30.115130	-25.309310	-3.187155	 9.581554	-9.665939	-9.521823	-38.684090	 5.070815	-0.697434	-9.399699	-2.350882	 35.473990	 5.254307
-0.227446	-5.520410	 1.259015	-4.477951	 18.002280	 3.793533	 3.603276	-34.956200	 175.562900	-1.913707	-43.159960	-0.695275	-0.956449	 81.579320	 0.291972	-2.352584	 34.129630	-0.128115	-0.771928	-35.763910	-179.399500	-2.669122	-42.622440	-0.768725	-1.572079	 82.270820	 0.751805	 2.405806	 20.683220	-0.159512	 9.682343	 14.489340	-0.059669	 10.361410	 1.128737	-2.007276	 11.706490	-4.135956	 1.198069	-124.269300	 89.249050	-143.260300	 59.359230	 67.147880	-63.020090	-11.135620	-0.778361	-22.801370	-1.139550	-2.231438	-5.371955	-5.293918	-11.852250	-0.501285	-5.213516	-0.193813	 3.566525	-1.378229	 35.397820	-2.634230	 0.745192	-0.089935	-3.651812	 2.877658	-7.444932	 1.830751	 93.675490	 85.984190	 172.115800	-56.174450	 77.305050	 63.657990	-1.842740	-12.414200	 27.499320	-26.245120	-3.190221	 9.574836	-9.416633	-9.021272	-38.456310	 5.070815	-0.697434	-9.399699	-2.350882	 35.473990	 5.254307
-0.226847	-5.527596	 1.259066	-4.516817	 18.295380	 3.818788	 3.571103	-34.968200	 175.604900	-2.036541	-43.334690	-0.805666	-1.025213	 81.922290	 0.229333	-2.349157	 34.584030	-0.138912	-0.755714	-35.589040	-179.438200	-2.496731	-42.442540	-0.643723	-1.519654	 82.743500	 0.867357	 2.405231	 21.134150	-0.150494	 10.712680	 14.333920	-0.063876	 10.177860	 0.966193	-2.013239	 11.397650	-4.342223	 1.186672	-122.711900	 89.211180	-144.776800	 61.321860	 67.638600	-63.713000	-10.529190	-0.887568	-22.126160	-0.780608	-2.248688	-5.369542	-4.967200	-11.531630	 0.240107	-5.213516	-0.193813	 3.566525	-1.378229	 35.397820	-2.634230	 0.731224	-0.242001	-3.544419	 2.751225	-7.703237	 1.731927	 93.653250	 86.008640	 172.197300	-51.824820	 78.468260	 58.163140	-2.260085	-11.905610	 25.447510	-27.175400	-3.200495	 9.556194	-9.174909	-8.518479	-38.244170	 5.070815	-0.697434	-9.399699	-2.350882	 35.473990	 5.254307
-0.226302	-5.533938	 1.259109	-4.632991	 18.523900	 3.850059	 3.550008	-34.979340	 175.626500	-2.074787	-43.515640	-0.851914	-1.060266	 82.196340	 0.208614	-2.344938	 35.123210	-0.151845	-0.742188	-35.398460	-179.475200	-2.358135	-42.309670	-0.542959	-1.469816	 83.055650	 0.949536	 2.404895	 21.375840	-0.145653	 11.688250	 14.220630	-0.061018	 10.022480	 0.818369	-1.973796	 11.119430	-4.537654	 1.176391	-120.688800	 89.157450	-146.753200	 62.900760	 68.075320	-64.224950	-10.030530	-0.980569	-21.569360	-0.453295	-2.261953	-5.366961	-4.586163	-11.177480	 1.115832	-5.213516	-0.193813	 3.566525	-1.378229	 35.397820	-2.634230	 0.754288	-0.400802	-3.457283	 2.642220	-7.939574	 1.697995	 93.698030	 86.074890	 172.205800	-47.131820	 79.355130	 52.478400	-2.532785	-11.514350	 23.970730	-27.919230	-3.209236	 9.538568	-8.988708	-8.099985	-38.100400	 5.070815	-0.697434	-9.399699	-2.350882	 35.473990	 5.254307
-0.225806	-5.539868	 1.259267	-4.799447	 18.726320	 3.895627	 3.544473	-34.940170	 175.640100	-2.102457	-43.658980	-0.881427	-1.087926	 82.398940	 0.201249	-2.340886	 35.620110	-0.163876	-0.733239	-35.250580	-179.532900	-2.286563	-42.225940	-0.489338	-1.444974	 83.249790	 0.997032	 2.404734	 21.486320	-0.143436	 12.639550	 14.127520	-0.080127	 9.864747	 0.701939	-1.901100	 10.847230	-4.701943	 1.162894	-118.163000	 89.083370	-149.248200	 64.172610	 68.517040	-64.552820	-9.698057	-1.043390	-21.091110	-0.207617	-2.272979	-5.364749	-4.272536	-10.855860	 1.844134	-5.213516	-0.193813	 3.566525	-1.378229	 35.397820	-2.634230	 0.796139	-0.505335	-3.368436	 2.547591	-8.177613	 1.735562	 93.806400	 86.178840	 172.146300	-42.283910	 80.011560	 46.757210	-2.667654	-11.168270	 22.850280	-28.459890	-3.216634	 9.522862	-8.855843	-7.770994	-38.018240	 5.070815	-0.697434	-9.399699	-2.350882	 35.473990	 5.254307
-0.225272	-5.545177	 1.259618	-4.982870	 18.923920	 3.943304	 3.557203	-34.867070	 175.675200	-2.172523	-43.713040	-0.927057	-1.121816	 82.507470	 0.183308	-2.337302	 36.044890	-0.174267	-0.735358	-35.289010	-179.575400	-2.341241	-42.175910	-0.527581	-1.478560	 83.336110	 0.993496	 2.404643	 21.547040	-0.142220	 13.533060	 14.035490	-0.123240	 9.685351	 0.624597	-1.805327	 10.580120	-4.824499	 1.145349	-115.291300	 88.988190	-152.114700	 65.159780	 68.941890	-64.722360	-9.536752	-1.070086	-20.692900	-0.073136	-2.282554	-5.363302	-4.088674	-10.644410	 2.274620	-5.213516	-0.193813	 3.566525	-1.378229	 35.397820	-2.634230	 0.844680	-0.540114	-3.256870	 2.473496	-8.404531	 1.807817	 93.962860	 86.304780	 172.032100	-37.669860	 80.444050	 41.368270	-2.643391	-10.854070	 22.055880	-28.737920	-3.222914	 9.509825	-8.765685	-7.585104	-37.935550	 5.070815	-0.697434	-9.399699	-2.350882	 35.473990	 5.254307
-0.224730	-5.550146	 1.260305	-5.165730	 19.129490	 3.956250	 3.570572	-34.809190	 175.716000	-2.280725	-43.669800	-0.994165	-1.161374	 82.512210	 0.148102	-2.333938	 36.431960	-0.183804	-0.767124	-35.321130	-179.536900	-2.436390	-42.144360	-0.610631	-1.543179	 83.359170	 0.966848	 2.404603	 21.571870	-0.141727	 14.375670	 13.938050	-0.148116	 9.480218	 0.574202	-1.695042	 10.313740	-4.917768	 1.124703	-112.340200	 88.867710	-155.077200	 65.954520	 69.306610	-64.874370	-9.477509	-1.077425	-20.364240	-0.002186	-2.291330	-5.362297	-3.992853	-10.601330	 2.500730	-5.213516	-0.193813	 3.566525	-1.378229	 35.397820	-2.634230	 0.887346	-0.580471	-3.115429	 2.423333	-8.569579	 1.899390	 94.170140	 86.438060	 171.842700	-33.702070	 80.678840	 36.713910	-2.673476	-10.626880	 21.501110	-28.949390	-3.227929	 9.499088	-8.723005	-7.563721	-37.848910	 5.070815	-0.697434	-9.399699	-2.350882	 35.473990	 5.254307
-0.224287	-5.554534	 1.261204	-5.340892	 19.323190	 3.935886	 3.575920	-34.791800	 175.749700	-2.406060	-43.598850	-1.075364	-1.200215	 82.446770	 0.098873	-2.330882	 36.773300	-0.192284	-0.806569	-35.399670	-179.456700	-2.530063	-42.117330	-0.697918	-1.612681	 83.385530	 0.940351	 2.404577	 21.591660	-0.141323	 15.157690	 13.862510	-0.141399	 9.258385	 0.547057	-1.585937	 10.043800	-4.982533	 1.100757	-110.252800	 88.763310	-157.180900	 66.586990	 69.581250	-65.054670	-9.354038	-1.109856	-20.066810	 0.154392	-2.299849	-5.360567	-3.931147	-10.749620	 2.647356	-5.213516	-0.193813	 3.566525	-1.378229	 35.397820	-2.634230	 0.921258	-0.655123	-2.970309	 2.380838	-8.637202	 2.002083	 94.400230	 86.561970	 171.610400	-30.446660	 80.786230	 32.875760	-2.772065	-10.497640	 21.142500	-29.160140	-3.231451	 9.490567	-8.692292	-7.590371	-37.756730	 5.070815	-0.697434	-9.399699	-2.350882	 35.473990	 5.254307
-0.223973	-5.558735	 1.262125	-5.523492	 19.513070	 3.910372	 3.575522	-34.786060	 175.769000	-2.543379	-43.506010	-1.166367	-1.241549	 82.345830	 0.041568	-2.328054	 37.083210	-0.200031	-0.847828	-35.430190	-179.369200	-2.628010	-42.079300	-0.788976	-1.686508	 83.403590	 0.913359	 2.404526	 21.622410	-0.140704	 15.922920	 13.792750	-0.102647	 9.016576	 0.529250	-1.492381	 9.757277	-5.032585	 1.073442	-108.856400	 88.681660	-158.592700	 67.070990	 69.791260	-65.229660	-9.047812	-1.201252	-19.794450	 0.520600	-2.308888	-5.356954	-3.860065	-10.878720	 2.815272	-5.213516	-0.193813	 3.566525	-1.378229	 35.397820	-2.634230	 0.951356	-0.746385	-2.825417	 2.342243	-8.647376	 2.105889	 94.622510	 86.669330	 171.379200	-27.754940	 80.814330	 29.681710	-2.891723	-10.436280	 20.933880	-29.350770	-3.233623	 9.483889	-8.659991	-7.623864	-37.655970	 5.070815	-0.697434	-9.399699	-2.350882	 35.473990	 5.254307
-0.223836	-5.562936	 1.263011	-5.690251	 19.666080	 3.889325	 3.574288	-34.685190	 175.778400	-2.646131	-43.398290	-1.234729	-1.272497	 82.247230	-0.003571	-2.325508	 37.355200	-0.206875	-0.855479	-35.354050	-179.295800	-2.765954	-42.014950	-0.887304	-1.767373	 83.397160	 0.883597	 2.404515	 21.631890	-0.140513	 16.660180	 13.715140	-0.049958	 8.752099	 0.512323	-1.418228	 9.446334	-5.077727	 1.042773	-107.919000	 88.623990	-159.556500	 67.381520	 69.945470	-65.359440	-8.668541	-1.318047	-19.581040	 0.983118	-2.317039	-5.352358	-3.868328	-10.961160	 2.796004	-5.213516	-0.193813	 3.566525	-1.378229	 35.397820	-2.634230	 0.980534	-0.794397	-2.692265	 2.291740	-8.664613	 2.159593	 94.782240	 86.745150	 171.217800	-25.673600	 80.784370	 27.180820	-2.998888	-10.421210	 20.854170	-29.488990	-3.234988	 9.480159	-8.627369	-7.662692	-37.550800	 5.070815	-0.697434	-9.399699	-2.350882	 35.473990	 5.254307
-0.223875	-5.566828	 1.263793	-5.823742	 19.781270	 3.880857	 3.573569	-34.507370	 175.788800	-2.699205	-43.284320	-1.269621	-1.296995	 82.191260	-0.022053	-2.323319	 37.584910	-0.212689	-0.827923	-35.340240	-179.260100	-2.892623	-41.910910	-0.958270	-1.821424	 83.378040	 0.856070	 2.404581	 21.586720	-0.141423	 17.358500	 13.616080	 0.000402	 8.474972	 0.485937	-1.363291	 9.118564	-5.129844	 1.010560	-107.319600	 88.589580	-160.191200	 67.532650	 70.029610	-65.426930	-8.438975	-1.387740	-19.464900	 1.276969	-2.322228	-5.349173	-3.992301	-11.023660	 2.505094	-5.213516	-0.193813	 3.566525	-1.378229	 35.397820	-2.634230	 1.009961	-0.803845	-2.584653	 2.234963	-8.713017	 2.175982	 94.864150	 86.792400	 171.150600	-24.061670	 80.713170	 25.204320	-3.057841	-10.426650	 20.875650	-29.542490	-3.235407	 9.479462	-8.596046	-7.704587	-37.446660	 5.070815	-0.697434	-9.399699	-2.350882	 35.473990	 5.254307
